# xmcd
#
# Track frame offsets:
#	150
#	18555
#	35902
#	54482
#	71600
#	90607
#	105495
#	121567
#	135295
#	151975
#	170087
#	188495
#	205845
#	224427
#	241542
#	260550
#	275435
#	291507
#	305237
#	321915
#
# Disc length: 4533 seconds
#
# Revision: 1
# Processed by: cddbd v1.5.1PL2 Copyright (c) Steve Scherf et al.
# Submitted via: audiograbber 1.83.01
#
DISCID=2411b314
DTITLE=Top Hits Monthly Country - Thmc0502
DYEAR=2005
DGENRE=Karaoke
TTITLE0=You're My Better Half - Keith Urban (Vocal)
TTITLE1=Bless The Broken Road - Rascal Flatts (Vocal)
TTITLE2=When I Think About Cheatin' - Gretchen Wilson (Vocal)
TTITLE3=I May Hate Myself In The Morning - Lee Ann Womack (Vocal)
TTITLE4=Chance - Julie Roberts (Vocal)
TTITLE5=That's What I Love About Sunday - Craig Morgan (Vocal)
TTITLE6=If Heaven - Andy Griggs (Vocal)
TTITLE7=I'm A Saint - Mark Chesnutt (Vocal)
TTITLE8=Me And Charlie Talking - Miranda Lambert (Vocal)
TTITLE9=Revenge Of A Middle Aged Woman - Tracy Byrd (Vocal)
TTITLE10=You're My Better Half - Keith Urban
TTITLE11=Bless The Broken Road - Rascal Flatts
TTITLE12=When I Think About Cheatin' - Gretchen Wilson
TTITLE13=I May Hate Myself In The Morning - Lee Ann Womack
TTITLE14=Chance - Julie Roberts
TTITLE15=That's What I Love About Sunday - Craig Morgan
TTITLE16=If Heaven - Andy Griggs
TTITLE17=I'm A Saint - Mark Chesnutt
TTITLE18=Me And Charlie Talking - Miranda Lambert
TTITLE19=Revenge Of A Middle Aged Woman - Tracy Byrd
EXTD=
EXTT0=
EXTT1=
EXTT2=
EXTT3=
EXTT4=
EXTT5=
EXTT6=
EXTT7=
EXTT8=
EXTT9=
EXTT10=
EXTT11=
EXTT12=
EXTT13=
EXTT14=
EXTT15=
EXTT16=
EXTT17=
EXTT18=
EXTT19=
PLAYORDER=
